<?xml version="1.0" encoding="UTF-8" standalone="no"?>
<!-- Created with Inkscape (http://www.inkscape.org/) -->

<svg
   xmlns:dc="http://purl.org/dc/elements/1.1/"
   xmlns:cc="http://creativecommons.org/ns#"
   xmlns:rdf="http://www.w3.org/1999/02/22-rdf-syntax-ns#"
   xmlns:svg="http://www.w3.org/2000/svg"
   xmlns="http://www.w3.org/2000/svg"
   version="1.1"
   width="750"
   height="600"
   viewBox="0 0 750 600"
   id="Layer_1"
   xml:space="preserve"
   style="overflow:visible"><defs
     id="defs14" /><metadata
     id="metadata3008"><rdf:RDF><cc:Work
         rdf:about=""><dc:format>image/svg+xml</dc:format><dc:type
           rdf:resource="http://purl.org/dc/dcmitype/StillImage" /><dc:title></dc:title></cc:Work></rdf:RDF></metadata><g
     transform="scale(3.125,3.125)"
     id="g2985"><path
       d="M 0,12 C 0,5.3726 5.3721,0 12,0 h 216 c 6.627,0 12,5.3726 12,12 v 168 c 0,6.627 -5.373,12 -12,12 H 12 C 5.3721,192 0,186.627 0,180 V 12 z"
       id="path2987" /><path
       d="M 120,96"
       id="path2989" /></g><g
     transform="scale(3.125,3.125)"
     id="g2991"
     style="fill:#ffffff"><ellipse
       cx="120"
       cy="96"
       rx="116"
       ry="92"
       id="ellipse2993" /><path
       d="M 120,96"
       id="path2995" /></g><g
     id="routenum"
     style="font-size:446.42855835px;font-style:normal;font-weight:normal;text-align:center;text-anchor:middle;fill:#000000;font-family:Roadgeek 2005 Series D"><path
       d="m 143.32102,450 0,-245.53571 -18.75,0 0,-32.58928 c 8.63091,-0.59496 15.47614,-2.67829 20.53571,-6.25 5.35709,-3.57114 9.67256,-8.48185 12.94643,-14.73214 l 28.57143,0 0,299.10713 -43.30357,0"
       id="path3141"
       style="font-family:Roadgeek 2005 Series C" /><path
       d="m 422.95968,300 c -2e-4,22.9168 -1.33949,42.41083 -4.01786,58.48215 -2.38115,16.0715 -6.69662,31.25005 -12.94643,45.53571 -7.44065,17.85717 -16.81564,30.95239 -28.125,39.28571 -11.01205,8.03571 -25.00013,12.05357 -41.96428,12.05357 -17.85724,0 -32.44056,-4.01786 -43.75,-12.05357 -11.01196,-8.33332 -20.23815,-21.42854 -27.67857,-39.28571 C 258.2275,389.43459 253.76322,374.25603 251.08468,358.48215 248.7037,342.41083 247.51323,322.9168 247.51326,300 c -3e-5,-22.61887 1.19044,-41.96409 3.57142,-58.03571 2.67854,-16.36882 7.14282,-31.69619 13.39286,-45.98214 7.73804,-17.85687 17.11303,-30.65448 28.125,-38.39286 11.30944,-8.03541 25.74395,-12.05326 43.30357,-12.05357 17.26177,3.1e-4 31.39866,4.01816 42.41071,12.05357 11.01174,7.73838 20.23792,20.83361 27.67857,39.28572 2.97601,7.44072 5.50576,14.88119 7.58929,22.32143 2.38076,7.44069 4.16647,15.32759 5.35714,23.66071 1.4879,8.03591 2.52956,16.81566 3.125,26.33928 0.59504,9.22637 0.89266,19.49421 0.89286,30.80357 m -41.07143,0 c -1.6e-4,-8.33317 -0.29778,-15.92245 -0.89286,-22.76785 -0.29778,-6.84506 -0.89301,-13.09505 -1.78571,-18.75 -0.5954,-5.95218 -1.48825,-11.60694 -2.67857,-16.96429 -1.19063,-5.35693 -2.52992,-10.71406 -4.01786,-16.07142 -3.86919,-13.39262 -8.7799,-23.06523 -14.73214,-29.01786 -5.65489,-5.95212 -12.94655,-8.92831 -21.875,-8.92857 -18.45248,2.6e-4 -31.10127,12.35144 -37.94643,37.05357 -3.5715,11.30974 -6.10126,22.76806 -7.58928,34.375 -1.19055,11.3097 -1.78579,25.29778 -1.78572,41.96428 -7e-5,8.03586 0.14874,15.47633 0.44643,22.32143 0.59517,6.54774 1.19041,12.79773 1.78572,18.75 0.89278,5.65486 1.93445,11.30962 3.125,16.96428 1.1904,5.65485 2.52968,11.45842 4.01785,17.41072 6.84516,24.70243 19.49395,37.0536 37.94643,37.05357 8.92845,3e-5 16.22011,-2.97615 21.875,-8.92857 5.95224,-5.95233 10.86295,-15.32732 14.73214,-28.125 1.78556,-5.9523 3.27366,-11.60706 4.46429,-16.96429 1.19032,-5.65466 2.08317,-11.45823 2.67857,-17.41071 0.8927,-5.95227 1.48793,-12.20226 1.78571,-18.75 0.29746,-6.8451 0.44627,-14.58319 0.44643,-23.21429"
       id="path3143"
       style="font-family:Roadgeek 2005 Series C" /><path
       d="m 635.29226,369.19643 c -1.9e-4,12.20245 -2.08352,23.66077 -6.25,34.375 -4.16684,10.4167 -9.97041,19.49407 -17.41072,27.23214 -7.14301,7.73811 -15.92276,13.83929 -26.33928,18.30357 -10.11917,4.16667 -21.13107,6.25 -33.03572,6.25 -12.20247,0 -23.36317,-2.08333 -33.48214,-6.25 -9.82148,-4.16666 -18.45243,-9.97022 -25.89285,-17.41071 -7.1429,-7.44045 -12.94646,-16.2202 -17.41072,-26.33929 -4.16668,-10.41661 -6.54763,-21.72612 -7.14285,-33.92857 l 41.96428,0 c 1.19042,12.20245 5.50589,22.32149 12.94643,30.35715 7.73801,7.73813 17.41062,11.60717 29.01785,11.60714 12.20227,3e-5 22.1725,-4.16663 29.91072,-12.5 8.03557,-8.6309 12.05343,-19.19636 12.05357,-31.69643 -1.4e-4,-8.03562 -1.04181,-15.47609 -3.125,-22.32143 -2.08347,-7.14274 -4.91085,-13.24393 -8.48214,-18.30357 -3.57156,-5.35701 -7.73822,-9.52368 -12.5,-12.5 -4.4644,-2.97605 -9.37511,-4.46414 -14.73215,-4.46428 l -20.98214,0 0,-41.07143 17.85714,0 c 5.35704,1.8e-4 9.37489,-0.89268 12.05358,-2.67857 2.97607,-1.78553 6.24988,-4.76172 9.82142,-8.92857 8.63082,-9.52361 12.9463,-20.68431 12.94643,-33.48214 -1.3e-4,-11.60691 -3.27394,-20.83309 -9.82143,-27.67858 -6.25012,-6.84497 -14.58344,-10.26759 -25,-10.26785 -9.5239,2.6e-4 -17.11317,2.82764 -22.76785,8.48214 -5.35722,5.35739 -8.63102,13.09548 -9.82143,23.21429 l -41.96428,-5.35715 c 1.19044,-9.82118 3.86901,-18.89855 8.03571,-27.23214 4.16663,-8.63068 9.52376,-15.92234 16.07143,-21.875 6.54756,-5.95209 14.13684,-10.56518 22.76785,-13.83928 8.63087,-3.57113 17.85705,-5.35684 27.67857,-5.35715 10.71418,3.1e-4 20.68441,1.93483 29.91072,5.80357 9.22605,3.86935 17.11294,9.37529 23.66071,16.51786 6.84508,6.84551 12.20221,15.03003 16.07143,24.55357 3.86887,9.22644 5.80339,19.19667 5.80357,29.91072 -1.8e-4,12.50021 -2.08351,24.10734 -6.25,34.82142 -3.86921,10.71447 -10.86325,21.87517 -20.98214,33.48214 11.60698,10.41682 20.23792,22.32157 25.89286,35.71429 5.95219,13.39297 8.92838,27.67867 8.92857,42.85714"
       id="path3145"
       style="font-family:Roadgeek 2005 Series C" /></g></svg>