<?xml version="1.0" encoding="utf-8"?>
<!-- Generator: Adobe Illustrator 12.0.0, SVG Export Plug-In . SVG Version: 6.00 Build 51448)  -->
<!DOCTYPE svg PUBLIC "-//W3C//DTD SVG 1.1//EN" "http://www.w3.org/Graphics/SVG/1.1/DTD/svg11.dtd" [
	<!ENTITY ns_svg "http://www.w3.org/2000/svg">
	<!ENTITY ns_xlink "http://www.w3.org/1999/xlink">
]>
<svg  version="1.1" id="Layer_1" xmlns="&ns_svg;" xmlns:xlink="&ns_xlink;" width="751" height="601" viewBox="0 0 751 601"
	 overflow="visible" enable-background="new 0 0 751 601" xml:space="preserve">
<g>
	<g>
		<g>
			<path fill="#FFFFFF" d="M0.5,50.5c0-27.6142578,22.3852539-50,50-50h650c27.6142578,0,50,22.3857422,50,50v500
				c0,27.6152344-22.3857422,50-50,50h-650c-27.6147461,0-50-22.3847656-50-50V50.5L0.5,50.5z"/>
			<path fill="#FFFFFF" d="M375.5,300.5"/>
		</g>
		<g>
			<path fill="none" stroke="#000000" stroke-linecap="round" stroke-linejoin="round" stroke-miterlimit="3.863693" d="M0.5,50.5
				c0-27.6142578,22.3852539-50,50-50h650c27.6142578,0,50,22.3857422,50,50v500c0,27.6152344-22.3857422,50-50,50h-650
				c-27.6147461,0-50-22.3847656-50-50V50.5L0.5,50.5z"/>
			<path fill="none" stroke="#000000" stroke-linecap="round" stroke-linejoin="round" stroke-miterlimit="3.863693" d="
				M375.5,300.5"/>
		</g>
	</g>
	<g>
		<g>
			<path d="M10.5,50.5c0-22.0913086,17.9082031-40,40-40h650c22.0917969,0,40,17.9086914,40,40v500
				c0,22.0917969-17.9082031,40-40,40h-650c-22.0917969,0-40-17.9082031-40-40V50.5L10.5,50.5z"/>
			<path d="M375.5,300.5"/>
		</g>
	</g>
	<g>
		<g>
			<path fill="#FFFFFF" d="M25.5,50.5c0-13.8071289,11.1923828-25,25-25h650c13.8066406,0,25,11.1928711,25,25v500
				c0,13.8076172-11.1933594,25-25,25h-650c-13.8076172,0-25-11.1923828-25-25V50.5L25.5,50.5z"/>
			<path fill="#FFFFFF" d="M375.5,300.5"/>
		</g>
	</g>
</g>
<g>
	<path fill-rule="evenodd" clip-rule="evenodd" d="M103.7177734,445.3125V210.5869141H77.3486328v-36.7441406h3.0258789
		c6.0522461,0,12.1040039-1.5844727,18.1557617-4.7548828c6.0517578-3.1699219,11.0952148-7.637207,15.1298828-13.4003906
		h36.7431641v289.625H103.7177734z"/>
	<path fill-rule="evenodd" clip-rule="evenodd" d="M418.3144531,300.9326172
		c0,23.0546875-2.7382813,45.1005859-8.2138672,66.1376953c-5.4755859,21.0380859-13.2568359,38.0410156-23.3427734,51.0097656
		C370.6196289,439.6933594,347.2763672,450.5,316.7290039,450.5c-20.4614258,0-37.3198242-4.1787109-50.5761719-12.5361328
		c-13.2568359-8.3564453-24.2075195-21.4697266-32.8530273-39.3369141
		c-6.0517578-12.3925781-10.9511719-27.4492188-14.6977539-45.1728516s-5.6196289-35.2304688-5.6196289-52.5214844
		c0-23.9199219,2.8100586-46.1098633,8.4296875-66.5708008c5.6191406-20.4609375,13.3286133-37.6079102,23.1264648-51.440918
		c8.6459961-10.9506836,18.9487305-19.0922852,30.9077148-24.4238281C287.40625,153.1660156,301.7431641,150.5,318.4580078,150.5
		c18.4438477,0,34.1499023,4.1787109,47.1181641,12.5361328c12.96875,8.3574219,24.0634766,21.4697266,33.2851563,39.3374023
		c6.0527344,12.9682617,10.8066406,28.0976563,14.265625,45.3891602
		C416.5849609,265.0537109,418.3144531,282.7768555,418.3144531,300.9326172z M372.4926758,300.9326172
		c0-16.4267578-1.440918-31.628418-4.3227539-45.6054688c-2.8818359-13.9765625-7.2045898-25.8642578-12.9682617-35.6625977
		c-4.6108398-7.4926758-9.8706055-12.96875-15.777832-16.4267578c-5.9082031-3.4580078-13.1845703-5.4750977-21.8300781-6.0517578
		c-11.2392578-0.5761719-20.6054688,2.0175781-28.0981445,7.78125s-13.6889648,15.1293945-18.5878906,28.0976563
		c-3.746582,8.6455078-6.5561523,19.0922852-8.4291992,31.340332c-1.8735352,12.2475586-2.8100586,24.4233398-2.8100586,36.5273438
		c0,15.5615234,1.440918,30.5478516,4.3227539,44.9560547c2.8818359,14.4101563,7.2045898,26.2255859,12.9682617,35.4472656
		c4.6108398,7.4921875,10.0864258,13.1123047,16.4267578,16.859375c6.3398438,3.7460938,14.1206055,5.6191406,23.3427734,5.6191406
		c10.6625977,0,19.5244141-2.8818359,26.5849609-8.6455078s13.0405273-15.1298828,17.9394531-28.0986328
		c1.440918-3.7460938,2.8818359-8.2851563,4.3227539-13.6162109s2.6660156-10.9511719,3.6743164-16.8583984
		c1.0087891-5.9082031,1.8012695-11.8886719,2.3774414-17.9394531
		C372.2045898,312.6035156,372.4926758,306.6953125,372.4926758,300.9326172z"/>
	<path fill-rule="evenodd" clip-rule="evenodd" d="M476.5332031,445.3125
		c0.5761719-17.0019531,2.7373047-32.5644531,6.484375-46.6855469c3.7460938-14.1210938,9.6542969-28.0976563,17.7226563-41.9316406
		c6.0527344-10.9511719,13.5449219-21.1083984,22.4785156-30.4746094s18.4443359-17.7949219,28.5302734-25.2880859
		c2.59375-1.440918,4.8994141-2.9541016,6.9169922-4.5390625s4.0341797-3.0981445,6.0517578-4.5390625l15.5615234-8.2128906
		l14.265625-8.2138672l13.8320313-7.78125c5.7636719-3.7456055,10.4472656-8.4287109,14.0498047-14.0488281
		c3.6025391-5.6191406,5.4033203-11.4545898,5.4033203-17.5068359c0-5.4750977-1.4414063-10.5908203-4.3232422-15.3461914
		c-2.8818359-4.7543945-6.7001953-8.8613281-11.4550781-12.3193359s-10.3027344-6.1958008-16.6425781-8.2133789
		c-6.3398438-2.0170898-13.1123047-3.0258789-20.3173828-3.0258789c-14.6972656,0-26.5849609,3.4584961-35.6621094,10.3745117
		c-9.078125,6.9160156-14.7695313,17.0029297-17.0751953,30.2597656l-45.8212891-9.9423828
		c4.8984375-24.2075195,16.1386719-43.1557617,33.7177734-56.8447266C527.8300781,157.3447266,549.4433594,150.5,575.0917969,150.5
		c13.8330078,0,26.7294922,2.3056641,38.6894531,6.9165039c11.9589844,4.6113281,22.3339844,10.8071289,31.1230469,18.5878906
		c8.7900391,7.78125,15.7792969,16.9311523,20.9658203,27.449707c5.1875,10.5185547,7.78125,21.6860352,7.78125,33.5014648
		c0,11.2392578-2.5214844,22.262207-7.5654297,33.0693359c-5.0429688,10.8066406-12.3193359,20.3886719-21.8300781,28.7460938
		c-2.3046875,1.7290039-4.3945313,3.3129883-6.2675781,4.7543945s-3.8183594,2.59375-5.8359375,3.4589844l-14.2646484,9.0771484
		l-15.5625,8.2138672l-14.2646484,8.2128906c-6.9160156,4.0351563-13.0400391,8.2851563-18.3720703,12.7519531
		c-5.3310547,4.4667969-10.2304688,9.2949219-14.6972656,14.4824219
		c-4.4667969,5.1865234-8.6455078,10.9501953-12.5361328,17.2900391s-7.5644531,13.5449219-11.0234375,21.6142578h142.2197266
		V445.3125H476.5332031z"/>
</g>
</svg>
